<?xml version="1.0" encoding="utf-8"?>
<!-- Generator: Adobe Illustrator 21.1.0, SVG Export Plug-In . SVG Version: 6.00 Build 0)  -->
<svg version="1.1" id="Layer_1" xmlns="http://www.w3.org/2000/svg" xmlns:xlink="http://www.w3.org/1999/xlink" x="0px" y="0px"
	 viewBox="0 0 28 28" style="enable-background:new 0 0 28 28;" xml:space="preserve">
<style type="text/css">
	.st0{fill:#F3F3F5;}
</style>
<title>external-link</title>
<path class="st0" d="M22,14.5v5c0,2.5-2,4.5-4.5,4.5h-13C2,24,0,22,0,19.5v-13C0,4,2,2,4.5,2h11C15.8,2,16,2.2,16,2.5v1
	C16,3.8,15.8,4,15.5,4h-11C3.1,4,2,5.1,2,6.5v13C2,20.9,3.1,22,4.5,22h13c1.4,0,2.5-1.1,2.5-2.5v-5c0-0.3,0.2-0.5,0.5-0.5h1
	C21.8,14,22,14.2,22,14.5z M28,1v8c0,0.5-0.5,1-1,1c-0.3,0-0.5-0.1-0.7-0.3L23.5,7L13.4,17.1c-0.1,0.1-0.2,0.2-0.4,0.2
	s-0.3-0.1-0.4-0.2l-1.8-1.8c-0.1-0.1-0.2-0.2-0.2-0.4s0.1-0.3,0.2-0.4L21,4.5l-2.8-2.8C18.1,1.5,18,1.3,18,1c0-0.5,0.5-1,1-1h8
	C27.5,0,28,0.5,28,1L28,1z"/>
</svg>
